<svg xmlns="http://www.w3.org/2000/svg" version="1.1" xmlns:xlink="http://www.w3.org/1999/xlink" xmlns:svgjs="http://svgjs.com/svgjs" width="1440" height="560" preserveAspectRatio="none" viewBox="0 0 1440 560"><g mask="url(&quot;#SvgjsMask1000&quot;)" fill="none"><rect width="1440" height="560" x="0" y="0" fill="#1e3266"></rect><path d="M1464 560L0 560 L0 313.82Q58.84 300.66, 72 359.51Q93.43 260.94, 192 282.37Q238.71 257.08, 264 303.79Q327.67 295.46, 336 359.13Q360.07 263.2, 456 287.27Q500.56 259.82, 528 304.38Q605.65 262.03, 648 339.69Q683.46 255.15, 768 290.62Q834.61 237.23, 888 303.84Q942.98 286.82, 960 341.8Q970.79 280.59, 1032 291.38Q1102.92 242.31, 1152 313.23Q1227.45 268.69, 1272 344.14Q1310.65 262.79, 1392 301.45Q1437.6 275.05, 1464 320.65z" fill="#182f5d"></path><path d="M1560 560L0 560 L0 389.44Q42.33 311.77, 120 354.1Q168.38 330.48, 192 378.86Q283.4 350.26, 312 441.67Q346.72 356.39, 432 391.12Q462.27 349.39, 504 379.67Q554.49 310.16, 624 360.65Q675.34 339.99, 696 391.33Q749.49 324.81, 816 378.3Q888.28 330.59, 936 402.87Q1013.5 360.37, 1056 437.87Q1078.19 340.06, 1176 362.26Q1249.38 315.64, 1296 389.03Q1357.14 378.17, 1368 439.32Q1384.97 384.29, 1440 401.26Q1491.85 333.11, 1560 384.96z" fill="#25467d"></path><path d="M1560 560L0 560 L0 450.64Q45.5 424.14, 72 469.64Q90.38 416.01, 144 434.39Q212.23 382.62, 264 450.85Q305.24 420.09, 336 461.32Q379.26 432.58, 408 475.84Q419.8 415.64, 480 427.44Q552.28 379.72, 600 452Q643.69 423.69, 672 467.38Q720.95 444.33, 744 493.28Q774.04 451.31, 816 481.35Q857.37 402.72, 936 444.09Q1028.23 416.32, 1056 508.55Q1081.91 462.46, 1128 488.37Q1173.87 414.24, 1248 460.11Q1331.46 423.58, 1368 507.04Q1368.51 435.55, 1440 436.06Q1491.97 368.03, 1560 420.01z" fill="#356cb1"></path><path d="M1488 560L0 560 L0 533.7Q25.66 487.36, 72 513.02Q151.34 472.36, 192 551.7Q240.07 527.77, 264 575.84Q273.09 512.93, 336 522.02Q387.84 453.86, 456 505.69Q513 490.69, 528 547.69Q560.54 460.23, 648 492.77Q721.1 445.87, 768 518.97Q813.9 492.87, 840 538.77Q885.82 512.59, 912 558.4Q947.12 473.51, 1032 508.63Q1086.35 490.98, 1104 545.33Q1181.17 502.5, 1224 579.67Q1231.62 515.29, 1296 522.91Q1346.32 453.23, 1416 503.54Q1481.2 496.75, 1488 561.95z" fill="white"></path></g><defs><mask id="SvgjsMask1000"><rect width="1440" height="560" fill="#ffffff"></rect></mask></defs></svg>